<?xml version="1.0" encoding="UTF-8"?>
<svg id="_レイヤー_1" data-name="レイヤー 1" xmlns="http://www.w3.org/2000/svg" version="1.1" viewBox="0 0 411.4 45">
  <defs>
    <style>
      .cls-1 {
        fill: #133476;
        stroke-width: 0px;
      }
    </style>
  </defs>
  <path class="cls-1" d="M33.1,32.6c-1.2.7-2.5,1.2-3.8,1.8-1.3.5-3,.8-4.9.8-3.7,0-6.6-1.1-8.6-3.2-2.1-2.1-3.1-5.3-3.1-9.4s.4-4.9,1.3-6.8c.9-1.9,2.1-3.3,3.8-4.3,1.7-1,3.7-1.5,6.1-1.5s3.4.3,4.8.8,2.7,1.2,3.9,2c.8-.5,1.5-1.2,2.1-2.1.6-.9.9-1.9.9-3.1s-.5-2.7-1.6-3.9c-1.1-1.1-2.6-2-4.6-2.7-2-.7-4.4-1-7.3-1s-7.7.9-11,2.6c-3.3,1.8-6,4.3-7.9,7.6-2,3.3-2.9,7.4-2.9,12.3s1,9.4,3,12.7c2,3.3,4.8,5.8,8.2,7.4,3.4,1.6,7.2,2.4,11.4,2.4s4.1-.2,5.6-.6c1.5-.4,2.7-.7,3.6-1.1,1.4-.6,2.3-1.4,2.9-2.2.6-.9.8-1.9.8-2.9s-.2-2.3-.7-3.2c-.4-.9-1.1-1.7-1.9-2.3Z"/>
  <path class="cls-1" d="M78.5,1.8c-1-.8-2.7-1.3-5-1.3s-2.1,0-3.2.2c-1.1.2-1.9.3-2.5.4v16.5h-13.4V6.4c0-2.3-.5-3.8-1.5-4.6-1-.8-2.7-1.2-5-1.2s-2.1,0-3.2.2c-1.1.2-1.9.3-2.5.4v37.3c0,2.1.5,3.7,1.5,4.5,1,.9,2.7,1.3,5.1,1.3s2.2,0,3.3-.2c1.1-.1,1.9-.3,2.4-.4v-16.3h13.4v11.1c0,2.1.5,3.7,1.5,4.5s2.7,1.3,5.1,1.3,2.2,0,3.3-.2,1.9-.3,2.4-.4V6.5c0-2.3-.5-3.9-1.5-4.7Z"/>
  <path class="cls-1" d="M121.9,23.3c-1-3.5-2-6.8-2.9-10-1-3.2-1.9-6-2.7-8.4-.5-1.5-1.6-2.6-3.4-3.3-1.8-.7-3.9-1-6.2-1s-3.2.2-4.8.6c-1.6.4-2.8.9-3.6,1.3-.4,1-.9,2.5-1.7,4.6-.7,2.1-1.6,4.4-2.5,7-.9,2.6-1.8,5.3-2.7,8-.9,2.7-1.7,5.3-2.5,7.6-.7,2.4-1.3,4.3-1.7,5.8-.2.9-.4,1.7-.6,2.3-.2.7-.3,1.3-.3,2,0,1.4.6,2.6,1.8,3.4,1.2.8,2.9,1.2,5.3,1.2s1.9,0,2.7-.3c.7-.2,1.4-.4,2-.6.2-.7.4-1.4.6-2.2.2-.7.4-1.5.6-2.3.2-.8.4-1.6.6-2.5.1-.6.3-1.2.5-1.8h12.7l1.3,4.8c.4,1.6,1.1,2.8,2,3.5.9.8,2.5,1.2,4.8,1.2s2.9-.2,4-.6c1.1-.4,2-.9,2.5-1.5-.7-2.6-1.5-5.6-2.5-8.9-.9-3.3-1.9-6.7-2.9-10.2ZM105.2,15.9c.5-1.5,1-3,1.4-4.3h.4c.4,1.3.8,2.6,1.2,4.2.4,1.5.9,3.1,1.3,4.8.4,1.6.9,3.2,1.3,4.9h-8.7c.5-1.6.9-3.2,1.4-4.7.6-1.7,1.1-3.3,1.6-4.9Z"/>
  <path class="cls-1" d="M164.7,33.1c-1-1.3-2-2.6-3-3.9-.5-.6-.9-1.2-1.4-1.8,2.1-1.2,3.8-2.7,5.1-4.6,1.6-2.2,2.4-4.8,2.4-7.6,0-4.6-1.6-8.2-4.9-11-3.3-2.7-8.1-4.1-14.6-4.1s-4.6.1-6.7.4c-2.1.3-3.9.7-5.5,1.2-.9.3-1.6.8-2.2,1.3-.6.5-.8,1.3-.8,2.3v33.2c0,2.1.5,3.7,1.5,4.5,1,.9,2.7,1.3,5.1,1.3s2.2,0,3.3-.2c1.1-.1,1.9-.3,2.4-.4v-13.7h3.7l5.9,9.6c.9,1.4,1.9,2.6,2.9,3.5,1.1.9,2.6,1.3,4.6,1.3s2.9-.4,4.2-1.3c1.2-.9,2.1-2.1,2.6-3.7-.5-.8-1.1-1.7-1.9-2.8-.8-1.1-1.7-2.2-2.6-3.5ZM145.2,10.2c.5,0,1-.2,1.5-.2.5,0,1,0,1.6,0,2.5,0,4.3.5,5.4,1.4,1.1.9,1.7,2.3,1.7,4s-.6,3.1-1.9,4c-1.3.9-2.9,1.4-4.8,1.4h-3.5v-10.5Z"/>
  <path class="cls-1" d="M208.5,23.3c-1-3.5-2-6.8-2.9-10-1-3.2-1.9-6-2.7-8.4-.5-1.5-1.6-2.6-3.4-3.3-1.8-.7-3.9-1-6.2-1s-3.2.2-4.8.6c-1.6.4-2.8.9-3.6,1.3-.4,1-.9,2.5-1.7,4.6-.7,2.1-1.6,4.4-2.5,7-.9,2.6-1.8,5.3-2.7,8-.9,2.7-1.7,5.3-2.5,7.6-.7,2.4-1.3,4.3-1.7,5.8-.2.9-.4,1.7-.6,2.3-.2.7-.3,1.3-.3,2,0,1.4.6,2.6,1.8,3.4,1.2.8,2.9,1.2,5.3,1.2s1.9,0,2.7-.3c.7-.2,1.4-.4,2-.6.2-.7.4-1.4.6-2.2.2-.7.4-1.5.6-2.3.2-.8.4-1.6.6-2.5.1-.6.3-1.2.5-1.8h12.7l1.3,4.8c.4,1.6,1.1,2.8,2,3.5.9.8,2.5,1.2,4.8,1.2s2.9-.2,4-.6c1.1-.4,2-.9,2.5-1.5-.7-2.6-1.5-5.6-2.5-8.9-.9-3.3-1.9-6.7-2.9-10.2ZM191.7,15.9c.5-1.5,1-3,1.4-4.3h.4c.4,1.3.8,2.6,1.2,4.2.4,1.5.9,3.1,1.3,4.8.4,1.6.9,3.2,1.3,4.9h-8.7c.5-1.6.9-3.2,1.4-4.7.6-1.7,1.1-3.3,1.6-4.9Z"/>
  <path class="cls-1" d="M250.5,32.6c-1.2.7-2.5,1.2-3.8,1.8-1.3.5-3,.8-4.9.8-3.7,0-6.6-1.1-8.6-3.2-2.1-2.1-3.1-5.3-3.1-9.4s.4-4.9,1.3-6.8c.9-1.9,2.1-3.3,3.8-4.3,1.7-1,3.7-1.5,6.1-1.5s3.4.3,4.8.8,2.7,1.2,3.9,2c.8-.5,1.5-1.2,2.1-2.1.6-.9.9-1.9.9-3.1s-.5-2.7-1.6-3.9c-1.1-1.1-2.6-2-4.6-2.7-2-.7-4.4-1-7.3-1s-7.7.9-11,2.6c-3.3,1.8-6,4.3-7.9,7.6-2,3.3-2.9,7.4-2.9,12.3s1,9.4,3,12.7c2,3.3,4.8,5.8,8.2,7.4,3.4,1.6,7.2,2.4,11.4,2.4s4.1-.2,5.6-.6c1.5-.4,2.7-.7,3.6-1.1,1.4-.6,2.3-1.4,2.9-2.2.6-.9.8-1.9.8-2.9s-.2-2.3-.7-3.2c-.4-.9-1.1-1.7-1.9-2.3Z"/>
  <path class="cls-1" d="M291.3,1.3h-30.7c-1.3,0-2.3.4-3.1,1.2-.8.8-1.2,2.1-1.2,3.9s.1,1.9.4,2.7c.3.8.5,1.5.9,2h10.6v27.4c0,2.1.5,3.7,1.5,4.5s2.7,1.3,5.1,1.3,2.2,0,3.3-.2c1.1-.1,1.9-.3,2.4-.4V11.1h7.9c1.3,0,2.3-.4,3.1-1.2.8-.8,1.2-2.1,1.2-3.8s-.1-1.9-.4-2.7c-.3-.8-.5-1.5-.9-2Z"/>
  <path class="cls-1" d="M328.4,34.3h-18v-7.4h12.8c1.3,0,2.3-.4,3.1-1.2.7-.8,1.1-2,1.1-3.7s-.1-1.9-.4-2.7c-.3-.8-.5-1.4-.9-2h-15.8v-6.5h14.8c1.3,0,2.3-.4,3.1-1.2.7-.8,1.1-2.1,1.1-3.8s-.1-1.9-.4-2.7c-.3-.8-.5-1.4-.9-2h-23.1c-2,0-3.6.6-4.8,1.8-1.2,1.2-1.8,2.8-1.8,4.8v29.6c0,2,.6,3.6,1.8,4.8,1.2,1.2,2.8,1.8,4.8,1.8h20.4c1.3,0,2.3-.4,3.1-1.2.7-.8,1.1-2,1.1-3.7s-.1-1.9-.4-2.7c-.3-.8-.5-1.5-.9-2Z"/>
  <path class="cls-1" d="M368.5,33.1c-1-1.3-2-2.6-3-3.9-.5-.6-.9-1.2-1.4-1.8,2.1-1.2,3.8-2.7,5.1-4.6,1.6-2.2,2.4-4.8,2.4-7.6,0-4.6-1.6-8.2-4.9-11-3.3-2.7-8.1-4.1-14.6-4.1s-4.6.1-6.7.4c-2.1.3-3.9.7-5.5,1.2-.9.3-1.6.8-2.2,1.3-.6.5-.8,1.3-.8,2.3v33.2c0,2.1.5,3.7,1.5,4.5,1,.9,2.7,1.3,5.1,1.3s2.2,0,3.3-.2c1.1-.1,1.9-.3,2.4-.4v-13.7h3.7l5.9,9.6c.9,1.4,1.9,2.6,2.9,3.5,1.1.9,2.6,1.3,4.6,1.3s2.9-.4,4.2-1.3c1.2-.9,2.1-2.1,2.6-3.7-.5-.8-1.1-1.7-1.9-2.8-.8-1.1-1.7-2.2-2.6-3.5ZM349,10.2c.5,0,1-.2,1.5-.2.5,0,1,0,1.6,0,2.5,0,4.3.5,5.4,1.4,1.1.9,1.7,2.3,1.7,4s-.6,3.1-1.9,4c-1.3.9-2.9,1.4-4.8,1.4h-3.5v-10.5Z"/>
  <path class="cls-1" d="M407.9,22.7c-2.3-2.2-5.7-4-10.2-5.4l-3.7-1.2c-1.2-.4-2.1-.8-2.7-1.2-.6-.4-.9-1-.9-1.7s.5-1.6,1.5-2.2c1-.6,2.5-.9,4.6-.9s3.9.2,5.7.7c1.7.5,3.1,1.1,4.1,1.7.8-.6,1.5-1.4,2-2.2.6-.9.8-1.9.8-3.1s-.6-3-1.8-4c-1.2-1.1-2.9-1.8-5-2.3-2.1-.5-4.5-.8-7.2-.8-5.5,0-9.8,1.2-12.8,3.6-3.1,2.4-4.6,5.6-4.6,9.5s.6,4.9,1.8,6.6c1.2,1.7,2.8,3,4.9,4.1,2.1,1.1,4.5,2,7.2,3l2.9,1c1.4.5,2.4,1,3.2,1.5.7.5,1.1,1.3,1.1,2.2s-.5,1.8-1.4,2.5c-.9.7-2.5,1.1-4.8,1.1s-4.3-.4-6.2-1.1c-1.9-.7-3.5-1.6-4.8-2.7-.9.5-1.8,1.2-2.6,2.2-.8,1-1.2,2.1-1.2,3.5s.7,3.2,2,4.4c1.4,1.2,3.2,2.1,5.5,2.7s4.9.9,7.7.9c6,0,10.6-1.2,13.8-3.7s4.7-5.7,4.7-9.7-1.2-6.7-3.5-8.9Z"/>
</svg>